<?xml version="1.0" encoding="UTF-8"?>
<svg id="uuid-90c0f501-ba19-45ef-b60d-45797efb3b8c" data-name="Layer 2" xmlns="http://www.w3.org/2000/svg" width="25.8mm" height="21.7mm" viewBox="0 0 73.1 61.5">
  <g id="uuid-cc3a67b9-13b4-46f0-84df-5ecc9c852a17" data-name="Layer 1">
    <g>
      <g>
        <path d="M8.1,55.8c0-2.2,1.2-3.4,2.7-3.4s1.6,.4,2.1,1v-3.5h.8v7.5c0,.8,0,1.3,.2,1.6h-.9c0-.2-.1-.6-.1-.9-.5,.6-1.2,1.1-2.2,1.1-1.5,0-2.7-1.1-2.7-3.3Zm4.8,1.6v-3.1c-.6-.7-1.3-1.1-2-1.1-1.1,0-2,.8-2,2.7s.9,2.6,2,2.6,1.4-.4,2-1.1Z" style="fill: #fff;"/>
        <path d="M15.4,55.8c0-2.3,1.5-3.3,2.8-3.3s2.6,1.1,2.6,3.4v.2h-4.6c0,1.6,.9,2.5,2,2.5s1.5-.4,2-1.2l.5,.4c-.6,.9-1.4,1.5-2.6,1.5s-2.8-1.2-2.8-3.4Zm4.6-.5c0-1.2-.7-2.1-1.8-2.1s-1.8,.7-2,2.1h3.8Z" style="fill: #fff;"/>
        <path d="M21.5,52.6h.9l1.9,5.4h0l1.9-5.4h.9l-2.4,6.5h-.8l-2.4-6.5Z" style="fill: #fff;"/>
        <path d="M27.7,55.8c0-2.3,1.5-3.3,2.8-3.3s2.6,1.1,2.6,3.4v.2h-4.6c0,1.6,.9,2.5,2,2.5s1.5-.4,2-1.2l.5,.4c-.6,.9-1.4,1.5-2.6,1.5s-2.8-1.2-2.8-3.4Zm4.6-.5c0-1.2-.7-2.1-1.8-2.1s-1.8,.7-2,2.1h3.8Z" style="fill: #fff;"/>
        <path d="M34.8,50h.8v9h-.8v-9Z" style="fill: #fff;"/>
        <path d="M37.3,55.8c0-2.2,1.3-3.4,2.9-3.4s2.9,1.2,2.9,3.4-1.3,3.4-2.9,3.4-2.9-1.2-2.9-3.4Zm5,0c0-1.4-.7-2.6-2.1-2.6s-2.1,1.1-2.1,2.6,.7,2.6,2.1,2.6,2.1-1.1,2.1-2.6Z" style="fill: #fff;"/>
        <path d="M44.8,52.6h.8v.9c.5-.6,1.2-1,2.2-1,1.5,0,2.7,1.1,2.7,3.3s-1.2,3.3-2.7,3.3-1.5-.4-2.1-1v3.3h-.8v-8.9Zm4.8,3.2c0-1.8-.9-2.6-2-2.6s-1.4,.4-2,1.1v3.1c.6,.7,1.3,1.1,2,1.1,1.1,0,2-.8,2-2.6Z" style="fill: #fff;"/>
        <path d="M51.6,55.8c0-2.3,1.5-3.3,2.8-3.3s2.6,1.1,2.6,3.4v.2h-4.6c0,1.6,.9,2.5,2,2.5s1.5-.4,2-1.2l.5,.4c-.6,.9-1.4,1.5-2.6,1.5s-2.8-1.2-2.8-3.4Zm4.6-.5c0-1.2-.7-2.1-1.8-2.1s-1.8,.7-2,2.1h3.8Z" style="fill: #fff;"/>
        <path d="M58.7,52.6h.8v1.3h0c.5-.8,1.3-1.4,2.6-1.4h.1v.8c0,0-.3,0-.3,0-1.1,0-1.9,.6-2.4,1.6v4.2h-.8v-6.4Z" style="fill: #fff;"/>
        <path d="M62.9,58l.5-.5c.5,.6,1.1,.9,2,.9s1.7-.4,1.7-1.1-.5-1-1.8-1.3c-1.5-.4-2.2-.8-2.2-1.9s.8-1.7,2.2-1.7,1.8,.4,2.4,.9l-.5,.6c-.5-.5-1.1-.8-1.9-.8s-1.4,.5-1.4,1,.4,.9,1.6,1.1c1.6,.4,2.4,.8,2.4,2s-1.1,1.8-2.5,1.8-2-.5-2.5-1.1Z" style="fill: #fff;"/>
      </g>
      <g>
        <path d="M.5,.5H21.3V6.6h-7V43.3H7.5V6.6H.5V.5Z" style="fill: #fff; stroke: #fff; stroke-linecap: round; stroke-linejoin: round;"/>
        <path d="M30.9,43.3h-6.7V.5h6.7V18.8h7.6V.5h6.8V43.3h-6.8V25h-7.6v18.3Z" style="fill: #fff; stroke: #fff; stroke-linecap: round; stroke-linejoin: round;"/>
        <path d="M59.1,26.2l-2.1,3.9v13.1h-6.7V.5h6.7V19.1L65.9,.5h6.7l-9.4,19.1,9.4,23.7h-6.9l-6.5-17.1Z" style="fill: #fff; stroke: #fff; stroke-linecap: round; stroke-linejoin: round;"/>
      </g>
    </g>
  </g>
</svg>