<?xml version="1.0" encoding="UTF-8"?>
<svg id="uuid-22d44477-44a0-4980-ae73-9c9a320e8df1" data-name="Layer 2" xmlns="http://www.w3.org/2000/svg" width="48.6mm" height="22.3mm" viewBox="0 0 137.9 63.1">
  <g id="uuid-43c1590d-6a24-44ad-ad0a-2d685b0e89e0" data-name="Layer 1">
    <g>
      <g>
        <path d="M16.5,62.8h-4.7l-.8-5.4H5.2l-.8,5.4H.1l4.8-29.8h6.8l4.8,29.8Zm-10.7-9.4h4.5l-2.3-15-2.3,15Z" style="fill: #1d1d1b;"/>
        <path d="M33.2,57.3l3.6-24.3h4.3l-4.6,29.8h-7l-4.6-29.8h4.7l3.6,24.3Z" style="fill: #1d1d1b;"/>
        <path d="M65.8,62.8h-4.7l-.8-5.4h-5.7l-.8,5.4h-4.3l4.8-29.8h6.8l4.8,29.8Zm-10.7-9.4h4.5l-2.3-15-2.3,15Z" style="fill: #1d1d1b;"/>
        <path d="M76.4,33h4.7v25.5h7.7v4.3h-12.4v-29.8Z" style="fill: #1d1d1b;"/>
        <path d="M99,40.2c0-4.8,2.5-7.5,7.1-7.5s7.1,2.7,7.1,7.5v15.5c0,4.8-2.5,7.5-7.1,7.5s-7.1-2.7-7.1-7.5v-15.5Zm4.7,15.8c0,2.1,.9,2.9,2.4,2.9s2.4-.8,2.4-2.9v-16.1c0-2.1-.9-2.9-2.4-2.9s-2.4,.8-2.4,2.9v16.1Z" style="fill: #1d1d1b;"/>
        <path d="M131,32.7c4.5,0,6.9,2.7,6.9,7.5v.9h-4.4v-1.2c0-2.1-.8-2.9-2.3-2.9s-2.3,.8-2.3,2.9c0,6.1,9.1,7.3,9.1,15.8s-2.4,7.5-7,7.5-7-2.7-7-7.5v-1.8h4.4v2.1c0,2.1,.9,2.9,2.4,2.9s2.4-.8,2.4-2.9c0-6.1-9.1-7.3-9.1-15.8s2.3-7.5,6.9-7.5Z" style="fill: #1d1d1b;"/>
      </g>
      <g>
        <path d="M0,0H14.5V4.3h-4.9V29.8H4.9V4.3H0V0Z" style="fill: #1d1d1b;"/>
        <path d="M29.7,29.8h-4.7V0h4.7V12.8h5.3V0h4.8V29.8h-4.8v-12.8h-5.3v12.8Z" style="fill: #1d1d1b;"/>
        <path d="M57.8,17.9l-1.4,2.7v9.1h-4.7V0h4.7V13L62.4,0h4.7l-6.5,13.3,6.5,16.5h-4.8l-4.5-11.9Z" style="fill: #1d1d1b;"/>
      </g>
    </g>
  </g>
</svg>