<?xml version="1.0" encoding="utf-8"?>
<!-- Generator: Adobe Illustrator 26.3.0, SVG Export Plug-In . SVG Version: 6.00 Build 0)  -->
<svg version="1.1" id="Layer_1" xmlns="http://www.w3.org/2000/svg" xmlns:xlink="http://www.w3.org/1999/xlink" x="0px" y="0px"
	 viewBox="0 0 180 85" style="enable-background:new 0 0 180 85;" xml:space="preserve">
<style type="text/css">
	.st0{fill:#1D1D1B;}
</style>
<g>
	<g>
		<path class="st0" d="M3.1,2.6h18.1v5.3H15v31.9H9.2V7.9H3.1V2.6z"/>
		<path class="st0" d="M40.5,39.8h-5.8V2.6h5.8v15.9h6.6V2.6h6v37.2h-6V23.8h-6.6V39.8z"/>
		<path class="st0" d="M68.3,2.6h5.8v37.2h-5.8V2.6z"/>
		<path class="st0" d="M94.6,12.8v26.9h-5.3V2.6h7.3l6,22.3V2.6h5.2v37.2h-6L94.6,12.8z"/>
		<path class="st0" d="M130.8,25l-1.8,3.4v11.4h-5.8V2.6h5.8v16.2l7.7-16.2h5.8l-8.1,16.6l8.1,20.6h-6L130.8,25z"/>
	</g>
	<g>
		<path class="st0" d="M23.7,82.6h-5.9l-1-6.7H9.6l-1,6.7H3.2l6-37.2h8.6L23.7,82.6z M10.3,70.8H16L13.1,52L10.3,70.8z"/>
		<path class="st0" d="M44.9,75.7l4.5-30.3h5.4L49,82.6h-8.7l-5.7-37.2h5.9L44.9,75.7z"/>
		<path class="st0" d="M86,82.6h-5.9l-1-6.7h-7.2l-1,6.7h-5.4l6-37.2H80L86,82.6z M72.7,70.8h5.6L75.5,52L72.7,70.8z"/>
		<path class="st0" d="M99.7,45.4h5.8v31.9h9.6v5.3H99.7V45.4z"/>
		<path class="st0" d="M128.2,54.3c0-6,3.1-9.4,8.9-9.4c5.7,0,8.9,3.4,8.9,9.4v19.3c0,6-3.1,9.4-8.9,9.4c-5.7,0-8.9-3.4-8.9-9.4
			V54.3z M134.1,74c0,2.7,1.2,3.7,3,3.7s3-1,3-3.7V53.9c0-2.7-1.2-3.7-3-3.7s-3,1-3,3.7V74z"/>
		<path class="st0" d="M168.6,45c5.7,0,8.6,3.4,8.6,9.4v1.2h-5.5v-1.5c0-2.7-1.1-3.7-2.9-3.7s-2.9,1-2.9,3.7
			c0,7.7,11.4,9.1,11.4,19.7c0,6-3,9.4-8.7,9.4c-5.7,0-8.7-3.4-8.7-9.4v-2.3h5.5V74c0,2.7,1.2,3.6,3,3.6s3-1,3-3.6
			c0-7.7-11.4-9.1-11.4-19.7C160,48.4,162.9,45,168.6,45z"/>
	</g>
</g>
</svg>
