<?xml version="1.0" encoding="UTF-8"?>
<svg id="uuid-c02208e1-e295-422e-b24e-75ed14c792bc" data-name="Layer 1" xmlns="http://www.w3.org/2000/svg" width="140" height="65" viewBox="0 0 140 65">
  <path d="M17.6,63.6h-4.7l-.8-5.4H6.3l-.8,5.4H1.2l4.8-29.8h6.8l4.8,29.8Zm-10.7-9.4h4.5l-2.3-15-2.3,15Z" style="fill: #1d1d1b;"/>
  <path d="M34.3,58.1l3.6-24.3h4.3l-4.6,29.8h-7l-4.6-29.8h4.7l3.6,24.3Z" style="fill: #1d1d1b;"/>
  <path d="M66.9,63.6h-4.7l-.8-5.4h-5.7l-.8,5.4h-4.3l4.8-29.8h6.8l4.8,29.8Zm-10.7-9.4h4.5l-2.3-15-2.3,15Z" style="fill: #1d1d1b;"/>
  <path d="M77.5,33.9h4.7v25.5h7.7v4.3h-12.4v-29.8Z" style="fill: #1d1d1b;"/>
  <path d="M100.1,41c0-4.8,2.5-7.5,7.1-7.5s7.1,2.7,7.1,7.5v15.5c0,4.8-2.5,7.5-7.1,7.5s-7.1-2.7-7.1-7.5v-15.5Zm4.7,15.8c0,2.1,.9,2.9,2.4,2.9s2.4-.8,2.4-2.9v-16.1c0-2.1-.9-2.9-2.4-2.9s-2.4,.8-2.4,2.9v16.1Z" style="fill: #1d1d1b;"/>
  <path d="M132.1,33.5c4.5,0,6.9,2.7,6.9,7.5v.9h-4.4v-1.2c0-2.1-.8-2.9-2.3-2.9s-2.3,.8-2.3,2.9c0,6.1,9.1,7.3,9.1,15.8s-2.4,7.5-7,7.5-7-2.7-7-7.5v-1.8h4.4v2.1c0,2.1,.9,2.9,2.4,2.9s2.4-.8,2.4-2.9c0-6.1-9.1-7.3-9.1-15.8s2.3-7.5,6.9-7.5Z" style="fill: #1d1d1b;"/>
  <path d="M1.1,.8H15.6V5.1h-4.9V30.6H6V5.1H1.1V.8Z" style="fill: #1d1d1b;"/>
  <path d="M30.8,30.6h-4.7V.8h4.7V13.6h5.3V.8h4.8V30.6h-4.8v-12.8h-5.3v12.8Z" style="fill: #1d1d1b;"/>
  <path d="M58.9,18.7l-1.4,2.7v9.1h-4.7V.8h4.7V13.8L63.6,.8h4.7l-6.5,13.3,6.5,16.5h-4.8l-4.5-11.9Z" style="fill: #1d1d1b;"/>
</svg>